Coordinates
version=1
nRows=13
nColumns=36
inDegrees=yes

Units are S.I. units (second, meters, Newtons, ...)
If the header above contains a line with 'inDegrees', this indicates whether rotational values are in degrees (yes) or radians (no).

endheader
time	pelvis_tilt	pelvis_list	pelvis_rotation	pelvis_tx	pelvis_ty	pelvis_tz	hip_flexion_r	hip_adduction_r	hip_rotation_r	knee_angle_r	knee_angle_r_beta	ankle_angle_r	subtalar_angle_r	mtp_angle_r	hip_flexion_l	hip_adduction_l	hip_rotation_l	knee_angle_l	knee_angle_l_beta	ankle_angle_l	subtalar_angle_l	mtp_angle_l	lumbar_extension	lumbar_bending	lumbar_rotation	arm_flex_r	arm_add_r	arm_rot_r	elbow_flex_r	pro_sup_r	arm_flex_l	arm_add_l	arm_rot_l	elbow_flex_l	pro_sup_l
      1.83000000	    -25.31260961	      1.44144077	     -0.18813834	     -0.22211175	      0.66923887	     -0.57076165	     79.39852085	      0.89483875	     11.70788742	     99.56652558	      1.73776370	     29.71426993	    -22.13833927	     -7.50019575	     85.88707588	     -3.65431491	      4.18906379	     97.87967720	      1.70832264	     25.22677434	    -11.47199798	     -7.50019575	    -16.90797017	     -4.50201965	     -6.67253187	    113.08733884	     -5.18303992	     14.10081377	    110.03816385	    112.03430812	    127.21774046	      0.34193509	     30.15108670	     90.41305753	    108.45829554
      1.84000000	    -25.09321214	      1.27152100	     -0.14051049	     -0.21727166	      0.68000751	     -0.57032064	     77.80830307	      0.98127748	     11.40442833	     97.90849813	      1.70882566	     28.85766096	    -22.61404580	     -7.50019346	     84.43771729	     -3.70220435	      4.25009330	     96.44094934	      1.68321210	     24.12814606	    -11.47452099	     -7.50019346	    -15.75008401	     -4.50553381	     -6.81985092	    115.86405581	     -6.56712746	     15.12614740	    109.17221751	    111.96162790	    130.86222964	     -0.60251745	     32.03513549	     89.14040647	    108.44912437
      1.85000000	    -24.99496412	      1.20419002	     -0.10946287	     -0.21230515	      0.69122435	     -0.57000734	     76.33004018	      0.99303672	     11.16942432	     96.07953685	      1.67690426	     26.94925743	    -24.14178682	     -7.50018688	     82.97889192	     -3.68608561	      4.12290640	     94.77025353	      1.65405296	     22.60844121	    -12.44094490	     -7.50018688	    -14.50143884	     -4.61181955	     -7.15761107	    118.37425685	     -7.60857508	     15.83832769	    108.15764677	    111.65951488	    134.64265526	     -1.67220188	     34.44226127	     87.90124784	    108.36656266
      1.86000000	    -24.92494560	      1.12528719	     -0.14349085	     -0.20725183	      0.70264418	     -0.56976114	     74.88062348	      0.97149049	     11.00056408	     94.23390621	      1.64469193	     25.86231415	    -24.08830910	     -7.50018390	     81.46391072	     -3.66531554	      4.13888266	     93.04415446	      1.62392684	     21.50743529	    -12.35558001	     -7.50018390	    -13.17275145	     -4.59455088	     -7.08865627	    121.18254561	     -8.92733463	     17.36662871	    106.72341347	    111.41790541	    138.02886493	     -2.61803747	     36.57310571	     86.62562203	    108.25060217
      1.87000000	    -24.81128441	      1.09686904	     -0.20152928	     -0.20217725	      0.71462398	     -0.56940173	     73.31333913	      0.97177649	     10.95454490	     92.20883450	      1.60934776	     23.99262599	    -24.95953417	     -7.50017604	     79.79747312	     -3.64029941	      4.08597567	     91.10200285	      1.59002990	     19.95507332	    -13.24247177	     -7.50017604	    -11.91164786	     -4.69989629	     -7.23814690	    123.64678802	     -9.86833015	     18.60647793	    105.14756483	    110.91217292	    141.61302391	     -3.56536336	     39.39767409	     85.08766299	    108.00394414
      1.88000000	    -24.68163968	      1.01631227	     -0.35987473	     -0.19699719	      0.72687934	     -0.56884849	     71.60255119	      1.13083440	     11.01131638	     90.03838546	      1.57146628	     22.95267427	    -24.77787644	     -7.50017288	     78.07084655	     -3.79004379	      4.06272417	     89.12087194	      1.55545265	     18.92671127	    -13.23913232	     -7.50017288	    -10.64595087	     -4.70919982	     -6.89453251	    126.42677096	    -11.12142800	     20.67373677	    103.24384721	    110.62108340	    144.82626136	     -4.17295017	     41.83212250	     83.24327658	    107.83505815
      1.89000000	    -24.51022143	      0.92419654	     -0.60153328	     -0.19161999	      0.73958662	     -0.56803321	     69.69654716	      1.41687629	     11.11281012	     87.60644202	      1.52902086	     21.74498377	    -24.97366616	     -7.50016987	     76.21083142	     -4.01869788	      4.05092442	     87.00070832	      1.51844881	     17.71062516	    -13.48382538	     -7.50016987	     -9.40459377	     -4.70627088	     -6.52407242	    129.06284581	    -12.12767030	     22.70396426	    101.03301965	    110.30044556	    147.96276874	     -4.77121581	     44.50603661	     81.09756896	    107.70949439
      1.90000000	    -24.31314464	      0.81756658	     -0.89715135	     -0.18597625	      0.75270671	     -0.56724769	     67.65493545	      1.68093332	     11.11437965	     84.95208217	      1.48269354	     20.34595715	    -25.48767265	     -7.50016570	     74.24751195	     -4.24415396	      4.10146905	     84.77667131	      1.47963204	     16.33006380	    -13.86183031	     -7.50016570	     -8.12280146	     -4.66753017	     -6.06762943	    131.43763295	    -12.99936553	     24.56089333	     98.65248208	    109.67043270	    150.76377618	     -5.29382622	     47.04412793	     78.77488012	    107.35461317
      1.91000000	    -24.12082260	      0.65637662	     -1.23410962	     -0.18020256	      0.76627781	     -0.56650236	     65.50570820	      1.98205167	     11.09861037	     82.07983089	      1.43256330	     19.07117272	    -25.77698094	     -7.50016255	     72.24267224	     -4.54692813	      4.16470997	     82.43703908	      1.43879776	     14.91694063	    -13.93264127	     -7.50016255	     -6.78678318	     -4.59122205	     -5.31608020	    133.69586997	    -13.91770441	     26.10342661	     96.05901553	    109.16813988	    152.92753079	     -5.37826966	     48.75307477	     76.08225888	    106.95276781
      1.92000000	    -23.89446569	      0.44512049	     -1.56054602	     -0.17418924	      0.78063075	     -0.56578765	     63.17367231	      2.25783819	     10.94434031	     78.86172983	      1.37639684	     17.03519178	    -26.87652384	     -7.50015698	     70.09922665	     -4.85399309	      4.19232671	     79.87257155	      1.39403936	     13.08110605	    -14.68971590	     -7.50015698	     -5.42174420	     -4.53002090	     -4.31328397	    135.70088115	    -15.15363201	     27.74974415	     93.52095894	    108.53440816	    154.50820459	     -5.10737348	     50.00722124	     73.14844107	    106.45237863
      1.93000000	    -23.57755402	      0.21277259	     -1.91793683	     -0.16816167	      0.79565991	     -0.56498486	     60.68808803	      2.58089719	     10.82315781	     75.45719098	      1.31697643	     14.72455121	    -27.87954864	     -7.50014928	     67.82235755	     -5.23602655	      4.14903528	     77.14709126	      1.34647075	     10.93926958	    -15.34594688	     -7.50014928	     -4.18318474	     -4.33397282	     -3.22929945	    137.70849670	    -15.89262495	     29.00655896	     90.36417914	    107.90549704	    155.66259477	     -4.84782837	     50.50338285	     70.14310646	    106.10016246
      1.94000000	    -23.15073087	     -0.09891902	     -2.24381166	     -0.16209252	      0.81130208	     -0.56434365	     58.07283738	      2.87510771	     10.67100901	     71.96279540	      1.25598772	     12.69098847	    -28.25000821	     -7.50014435	     65.43255806	     -5.68201288	      4.12244581	     74.35141031	      1.29767691	      9.00624609	    -15.54628796	     -7.50014435	     -3.16206072	     -3.91942583	     -2.25702950	    139.76301686	    -16.09933505	     30.11385665	     86.68466180	    107.55700777	    156.85247756	     -4.82666331	     51.15029190	     67.12520355	    105.89220869
      1.95000000	    -22.73924658	     -0.47379694	     -2.61221516	     -0.15608086	      0.82753209	     -0.56377520	     55.49315528	      3.23066696	     10.58885531	     68.32760022	      1.19254159	      9.64392386	    -28.92539321	     -7.50013803	     63.04703678	     -6.23384419	      4.07546662	     71.41963501	      1.24650778	      6.51797494	    -15.92713380	     -7.50013803	     -2.16558797	     -3.33520088	     -1.02797247	    141.87473082	    -16.02969184	     31.33724802	     82.65347727	    107.39150611	    157.76017704	     -4.85191918	     51.58607145	     64.27474819	    105.74857740
